<svg width="33" height="33" viewBox="0 0 33 33" fill="none" xmlns="http://www.w3.org/2000/svg">
<path d="M16.4995 24.25V14.95" stroke="white" stroke-width="2" stroke-linecap="round"/>
<path d="M16.5002 8.74998C17.3562 8.74998 18.0502 9.44393 18.0502 10.3C18.0502 11.156 17.3562 11.85 16.5002 11.85C15.6442 11.85 14.9502 11.156 14.9502 10.3C14.9502 9.44393 15.6442 8.74998 16.5002 8.74998Z" fill="white"/>
<path d="M1 16.5C1 9.19322 1 5.53984 3.26993 3.26993C5.53984 1 9.19322 1 16.5 1C23.8067 1 27.4602 1 29.73 3.26993C32 5.53984 32 9.19322 32 16.5C32 23.8067 32 27.4602 29.73 29.73C27.4602 32 23.8067 32 16.5 32C9.19322 32 5.53984 32 3.26993 29.73C1 27.4602 1 23.8067 1 16.5Z" stroke="white" stroke-width="2"/>
</svg>
