<svg width="23" height="18" viewBox="0 0 23 18" fill="none" xmlns="http://www.w3.org/2000/svg">
<path d="M21.6948 0.24324H1.70164C1.29194 0.24324 0.955078 0.583322 0.955078 0.996935V14.1314C0.955078 14.5451 1.29194 14.8851 1.70164 14.8851H6.34486L5.94427 13.3777H2.44819V1.75063H20.9574V13.3777H17.6343C18.5083 13.7454 19.3277 14.2509 20.0742 14.8851H21.713C22.1227 14.8851 22.4596 14.5451 22.4596 14.1314V0.996935C22.4414 0.583322 22.1045 0.24324 21.6948 0.24324Z" fill="white"/>
<path d="M16.7782 14.655C16.6963 14.6275 16.6144 14.5907 16.5415 14.5723C16.4869 14.5539 16.4323 14.5355 16.3776 14.5172C16.2411 14.4712 16.0954 14.4252 15.9497 14.3977C15.9133 14.3793 15.8769 14.3701 15.8405 14.3701H15.7221C15.6857 14.3701 15.6493 14.3793 15.6129 14.3977C15.2123 14.6183 14.6569 14.7378 14.0924 14.7378C13.528 14.7378 12.9817 14.6091 12.572 14.3977C12.5356 14.3793 12.4992 14.3701 12.4628 14.3701H12.3717C12.3535 14.3701 12.3353 14.3701 12.3171 14.3793C12.1623 14.4161 12.0075 14.462 11.8528 14.508C11.789 14.5264 11.7162 14.5539 11.6525 14.5723C11.5796 14.5999 11.5159 14.6183 11.4431 14.6458C11.2519 14.7194 11.0607 14.8021 10.8695 14.8848C10.6328 14.9951 10.3961 15.1146 10.1685 15.2433L9.94086 14.8848L9.70414 14.508L7.92879 11.6494C7.81044 11.4656 7.57372 11.3921 7.37343 11.4748C7.17313 11.5667 7.06388 11.7873 7.11851 12.0079L7.48268 13.3774L7.88327 14.8848L8.50237 17.2102C8.51147 17.2562 8.52968 17.293 8.557 17.3297V17.44C8.557 17.5687 8.66625 17.679 8.79371 17.679H19.3821C19.5095 17.679 19.6188 17.5687 19.6188 17.44V16.6036C19.6188 16.5393 19.5915 16.4841 19.546 16.4382C18.7357 15.6477 17.7888 15.0411 16.7782 14.655Z" fill="white"/>
<path d="M10.5962 10.3353C10.5962 12.2747 12.153 13.8556 14.0832 13.8556C16.0042 13.8556 17.5701 12.2839 17.5701 10.3353C17.5701 8.39592 16.0133 6.815 14.0832 6.815C12.1621 6.815 10.5962 8.38673 10.5962 10.3353Z" fill="white"/>
</svg>
