<svg width="34" height="34" viewBox="0 0 34 34" fill="none" xmlns="http://www.w3.org/2000/svg">
<path d="M16.8079 0C12.2431 0 11.6707 0.0193651 9.87796 0.101129C8.08897 0.182743 6.86716 0.466915 5.79803 0.882339C4.69276 1.31187 3.75543 1.88662 2.82105 2.821C1.88662 3.75538 1.31187 4.69281 0.882389 5.79808C0.466865 6.86716 0.182793 8.08897 0.101079 9.87796C0.0193151 11.6707 0 12.2431 0 16.8079C0 21.3725 0.0193151 21.9449 0.101079 23.7377C0.182793 25.5267 0.466865 26.7485 0.882389 27.8176C1.31192 28.9228 1.88667 29.8602 2.82105 30.7946C3.75548 31.729 4.69276 32.3038 5.79803 32.7333C6.86716 33.1487 8.08897 33.4329 9.87796 33.5145C11.6707 33.5963 12.2431 33.6156 16.8079 33.6156C21.3725 33.6156 21.9449 33.5963 23.7377 33.5145C25.5267 33.4329 26.7485 33.1487 27.8176 32.7333C28.9228 32.3038 29.8602 31.729 30.7946 30.7946C31.729 29.8602 32.3038 28.9228 32.7333 27.8176C33.1487 26.7485 33.4329 25.5267 33.5145 23.7377C33.5963 21.9449 33.6156 21.3725 33.6156 16.8079C33.6156 12.2431 33.5963 11.6707 33.5145 9.87796C33.4329 8.08897 33.1487 6.86716 32.7333 5.79808C32.3038 4.69281 31.729 3.75538 30.7946 2.821C29.8602 1.88662 28.9228 1.31187 27.8176 0.882339C26.7485 0.466915 25.5267 0.182743 23.7377 0.101129C21.9449 0.0193651 21.3725 0 16.8079 0ZM16.8079 3.02841C21.2957 3.02841 21.8273 3.04558 23.5996 3.12644C25.2384 3.20115 26.1284 3.47496 26.7206 3.70514C27.5052 4.01008 28.0651 4.37427 28.6532 4.96242C29.2414 5.55058 29.6056 6.11052 29.9105 6.89503C30.1407 7.4873 30.4145 8.37729 30.4892 10.016C30.5701 11.7884 30.5872 12.32 30.5872 16.8078C30.5872 21.2957 30.5701 21.8273 30.4892 23.5996C30.4145 25.2384 30.1407 26.1284 29.9105 26.7206C29.6056 27.5052 29.2414 28.0651 28.6532 28.6532C28.0651 29.2414 27.5051 29.6056 26.7206 29.9105C26.1283 30.1407 25.2384 30.4145 23.5996 30.4892C21.8276 30.5701 21.296 30.5872 16.8078 30.5872C12.3196 30.5872 11.7882 30.5701 10.016 30.4892C8.37724 30.4145 7.4873 30.1407 6.89508 29.9105C6.11047 29.6056 5.55058 29.2414 4.96247 28.6532C4.37432 28.0651 4.01008 27.5051 3.70514 26.7206C3.47496 26.1283 3.2012 25.2384 3.12644 23.5996C3.04558 21.8273 3.02841 21.2957 3.02841 16.8078C3.02841 12.32 3.04558 11.7884 3.12644 10.016C3.2012 8.37724 3.47496 7.4873 3.70514 6.89508C4.01008 6.11047 4.37432 5.55058 4.96242 4.96247C5.55058 4.37427 6.11052 4.01008 6.89503 3.70514C7.4873 3.47496 8.37729 3.20115 10.016 3.12644C11.7884 3.04558 12.32 3.02841 16.8079 3.02841Z" fill="white"/>
<path d="M16.8078 22.4106C13.7135 22.4106 11.2052 19.9023 11.2052 16.808C11.2052 13.7137 13.7135 11.2054 16.8078 11.2054C19.9021 11.2054 22.4104 13.7137 22.4104 16.808C22.4104 19.9023 19.9021 22.4106 16.8078 22.4106ZM16.8078 8.17696C12.041 8.17696 8.17676 12.0412 8.17676 16.808C8.17676 21.5748 12.041 25.439 16.8078 25.439C21.5746 25.439 25.4388 21.5748 25.4388 16.808C25.4388 12.0412 21.5746 8.17696 16.8078 8.17696ZM27.7968 7.83594C27.7968 8.94991 26.8938 9.85287 25.7799 9.85287C24.666 9.85287 23.7629 8.94991 23.7629 7.83594C23.7629 6.72202 24.666 5.81897 25.7799 5.81897C26.8938 5.81897 27.7968 6.72202 27.7968 7.83594Z" fill="white"/>
</svg>
