<svg width="35" height="21" viewBox="0 0 35 21" fill="none" xmlns="http://www.w3.org/2000/svg">
<path d="M34.0337 4.87823L18.7793 0.191542C17.948 -0.0638472 17.0512 -0.0638472 16.2205 0.191542L0.965502 4.87823C-0.321834 5.27362 -0.321834 6.97603 0.965502 7.37142L3.62494 8.18844C3.04143 8.90977 2.68268 9.78968 2.64713 10.7533C2.12049 11.0551 1.74972 11.5998 1.74972 12.2501C1.74972 12.8396 2.06034 13.3356 2.50768 13.6528L1.11152 19.9352C0.990111 20.4816 1.40573 21 1.96518 21H5.03368C5.59367 21 6.0093 20.4816 5.88789 19.9352L4.49173 13.6528C4.93907 13.3356 5.24969 12.8396 5.24969 12.2501C5.24969 11.6173 4.89587 11.088 4.39329 10.7806C4.43485 9.95921 4.85485 9.23297 5.52477 8.7725L16.2199 12.0587C16.7154 12.2107 17.6659 12.4004 18.7787 12.0587L34.0337 7.37196C35.3216 6.97603 35.3216 5.27416 34.0337 4.87823ZM19.2928 13.7315C17.7326 14.2106 16.4031 13.9459 15.7059 13.7315L7.77514 11.2952L6.99968 17.5C6.99968 19.4332 11.7006 21 17.4996 21C23.2986 21 27.9995 19.4332 27.9995 17.5L27.2241 11.2947L19.2928 13.7315Z" fill="white"/>
</svg>
