<svg width="50" height="30" viewBox="0 0 50 30" fill="none" xmlns="http://www.w3.org/2000/svg">
<path d="M48.6196 6.9689L26.8276 0.273631C25.6401 -0.0912104 24.3588 -0.0912104 23.1721 0.273631L1.37929 6.9689C-0.459763 7.53374 -0.459763 9.96576 1.37929 10.5306L5.17848 11.6978C4.34489 12.7282 3.8324 13.9853 3.78162 15.3618C3.02928 15.7931 2.49959 16.5712 2.49959 17.5001C2.49959 18.3423 2.94334 19.0509 3.5824 19.504L1.58788 28.4789C1.41444 29.2594 2.00819 30 2.8074 30H7.19097C7.99096 30 8.58471 29.2594 8.41127 28.4789L6.41675 19.504C7.05581 19.0509 7.49956 18.3423 7.49956 17.5001C7.49956 16.5962 6.99409 15.8399 6.27613 15.4009C6.33551 14.2274 6.9355 13.19 7.89253 12.5321L23.1713 17.2266C23.8791 17.4438 25.2369 17.7149 26.8268 17.2266L48.6196 10.5314C50.4594 9.96576 50.4594 7.53452 48.6196 6.9689ZM27.5611 19.6165C25.3323 20.3008 23.4331 19.9227 22.437 19.6165L11.1073 16.136L9.99954 25C9.99954 27.7617 16.7151 30 24.9994 30C33.2838 30 39.9993 27.7617 39.9993 25L38.8915 16.1352L27.5611 19.6165Z" fill="#4F0E77"/>
</svg>
