<svg width="21" height="20" viewBox="0 0 21 20" fill="none" xmlns="http://www.w3.org/2000/svg">
<path d="M10.4074 9.52698C11.5278 9.52698 12.6024 9.09779 13.3946 8.33382C14.1869 7.56985 14.632 6.53368 14.632 5.45327C14.632 4.37285 14.1869 3.33669 13.3946 2.57272C12.6024 1.80875 11.5278 1.37955 10.4074 1.37955C9.28698 1.37955 8.21244 1.80875 7.42018 2.57272C6.62791 3.33669 6.18282 4.37285 6.18282 5.45327C6.18282 6.53368 6.62791 7.56985 7.42018 8.33382C8.21244 9.09779 9.28698 9.52698 10.4074 9.52698ZM10.4074 11.3168C4.79055 11.3168 1.18982 14.3057 1.18982 15.761V18.4784H19.625V15.761C19.625 14.0011 16.2162 11.3168 10.4074 11.3168Z" fill="#7C52C7" stroke="#7C52C7" stroke-width="2"/>
</svg>
