<svg width="419" height="169" viewBox="0 0 419 169" fill="none" xmlns="http://www.w3.org/2000/svg">
<g clip-path="url(#clip0_1_2)">
<rect width="419" height="169" fill="white"/>
<path d="M16.4612 44.5429H0V25H92.5945V44.5429H36.009V82.6H63.7873C69.686 82.6 75.2416 83.7657 80.4544 86.0971C85.8043 88.2914 90.3997 91.3771 94.2407 95.3543C98.2188 99.1943 101.305 103.789 103.5 109.137C105.832 114.349 106.998 119.903 106.998 125.8C106.998 131.697 105.832 137.32 103.5 142.669C101.305 147.88 98.2188 152.474 94.2407 156.451C90.3997 160.291 85.8043 163.377 80.4544 165.709C75.2416 167.903 69.686 169 63.7873 169H16.4612V149.457V118.943V102.143V44.5429ZM87.4504 125.8C87.4504 122.509 86.8331 119.423 85.5985 116.543C84.3639 113.663 82.6492 111.194 80.4544 109.137C78.3967 106.943 75.9275 105.229 73.0468 103.994C70.1661 102.76 67.0796 102.143 63.7873 102.143H36.009V118.943V149.457H63.7873C67.0796 149.457 70.1661 148.84 73.0468 147.606C75.9275 146.371 78.3967 144.726 80.4544 142.669C82.6492 140.474 84.3639 137.937 85.5985 135.057C86.8331 132.177 87.4504 129.091 87.4504 125.8Z" fill="#4F0E77"/>
<path d="M189.32 169V102.143L152.283 169H133.764V86.7143H119.36V68.2H152.283V135.057L189.32 68.2H207.839V169H189.32Z" fill="#4F0E77"/>
<path d="M240.714 150.486H358V169H240.714V150.486ZM339.481 68.2H358V129.914H240.714V86.7143H226.31V68.2H259.233V111.4H290.097V80.5429H308.616V111.4H339.481V68.2Z" fill="#4F0E77"/>
<path d="M397.75 -0.920003V22.35H419.23V38.46H397.75V61.73H381.64V38.46H360.16V22.35H381.64V-0.920003H397.75Z" fill="#4F0E77"/>
<rect y="102" width="43" height="15" fill="white"/>
</g>
<defs>
<clipPath id="clip0_1_2">
<rect width="419" height="169" fill="white"/>
</clipPath>
</defs>
</svg>
