<svg width="150" height="62" viewBox="0 0 150 62" fill="none" xmlns="http://www.w3.org/2000/svg">
<path d="M5.85458 15.8222H0V8.72092H32.932V15.8222H12.8069V29.6512H22.6865C24.7844 29.6512 26.7603 30.0747 28.6142 30.9219C30.517 31.7193 32.1514 32.8405 33.5174 34.2857C34.9323 35.681 36.03 37.3505 36.8106 39.294C37.64 41.1877 38.0547 43.206 38.0547 45.3488C38.0547 47.4917 37.64 49.5349 36.8106 51.4784C36.03 53.3721 34.9323 55.0415 33.5174 56.4867C32.1514 57.8821 30.517 59.0033 28.6142 59.8505C26.7603 60.6478 24.7844 61.0465 22.6865 61.0465H5.85458V53.9452V42.8571V36.7525V15.8222ZM31.1024 45.3488C31.1024 44.1528 30.8829 43.0316 30.4438 41.985C30.0047 40.9385 29.3948 40.0415 28.6142 39.294C27.8824 38.4967 27.0042 37.8737 25.9797 37.4252C24.9551 36.9767 23.8574 36.7525 22.6865 36.7525H12.8069V42.8571V53.9452H22.6865C23.8574 53.9452 24.9551 53.7209 25.9797 53.2724C27.0042 52.8239 27.8824 52.2259 28.6142 51.4784C29.3948 50.681 30.0047 49.7591 30.4438 48.7126C30.8829 47.6661 31.1024 46.5448 31.1024 45.3488Z" fill="white"/>
<path d="M67.3333 61.0465V36.7525L54.1605 61.0465H47.5741V31.1462H42.4514V24.4186H54.1605V48.7126L67.3333 24.4186H73.9197V61.0465H67.3333Z" fill="white"/>
<path d="M85.6117 54.3189H127.326V61.0465H85.6117V54.3189ZM120.739 24.4186H127.326V46.8438H85.6117V31.1462H80.489V24.4186H92.1981V40.1163H103.175V28.9036H109.762V40.1163H120.739V24.4186Z" fill="white"/>
<path d="M142.389 0V8.42193H150V14.2525H142.389V22.6744H136.681V14.2525H129.07V8.42193H136.681V0H142.389Z" fill="white"/>
</svg>
