<svg width="30" height="30" viewBox="0 0 30 30" fill="none" xmlns="http://www.w3.org/2000/svg">
<g clip-path="url(#clip0_596_372)">
<path fill-rule="evenodd" clip-rule="evenodd" d="M19.4118 1.01562V5.22092L25.1559 8.5668C25.9676 9.03975 26.4706 9.91503 26.4706 10.8539V16.898H30V25.7215H21.2965L16.3324 28.6139C15.9212 28.8539 15.4606 28.9739 15 28.9739C14.5394 28.9739 14.0788 28.8539 13.6677 28.6139L8.70353 25.7215H0V16.898H3.52941V10.8539C3.52941 9.91503 4.03412 9.03799 4.84412 8.5668L10.5882 5.22094V1.01562H19.4118ZM19.4118 7.26269V9.83916H10.5882V7.26269L5.73177 10.0915C5.46177 10.2486 5.29411 10.5415 5.29411 10.8539V16.898H8.82353V23.7503L14.5571 27.0892C14.8288 27.2498 15.1712 27.2498 15.4429 27.0892L21.1765 23.7503V16.898H24.7059V10.8539C24.7059 10.5415 24.5365 10.2486 24.2665 10.0915L19.4118 7.26269ZM28.2353 18.6627H22.9412V23.9568H28.2353V18.6627ZM7.05883 18.6627H1.76469V23.9568H7.05881V18.6627H7.05883ZM17.6471 2.78034H12.3529V8.07445H17.6471V2.78031V2.78034Z" fill="#200351" stroke="#200351" stroke-width="0.00064"/>
</g>
<defs>
<clipPath id="clip0_596_372">
<rect width="30" height="30" fill="white"/>
</clipPath>
</defs>
</svg>
