<svg width="30" height="28" viewBox="0 0 30 28" fill="none" xmlns="http://www.w3.org/2000/svg">
<path fill-rule="evenodd" clip-rule="evenodd" d="M19.4118 0.015625V4.22092L25.1559 7.5668C25.9676 8.03975 26.4706 8.91503 26.4706 9.85386V15.898H30V24.7215H21.2965L16.3324 27.6139C15.9212 27.8539 15.4606 27.9739 15 27.9739C14.5394 27.9739 14.0788 27.8539 13.6677 27.6139L8.70353 24.7215H0V15.898H3.52941V9.85386C3.52941 8.91503 4.03412 8.03799 4.84412 7.5668L10.5882 4.22094V0.015625H19.4118ZM19.4118 6.26269V8.83916H10.5882V6.26269L5.73177 9.0915C5.46177 9.24856 5.29411 9.5415 5.29411 9.85386V15.898H8.82353V22.7503L14.5571 26.0892C14.8288 26.2498 15.1712 26.2498 15.4429 26.0892L21.1765 22.7503V15.898H24.7059V9.85386C24.7059 9.54152 24.5365 9.24856 24.2665 9.09152L19.4118 6.26269ZM28.2353 17.6627H22.9412V22.9568H28.2353V17.6627ZM7.05883 17.6627H1.76469V22.9568H7.05881V17.6627H7.05883ZM17.6471 1.78034H12.3529V7.07445H17.6471V1.78031V1.78034Z" fill="white" stroke="white" stroke-width="0.00064"/>
</svg>
