<svg width="24" height="23" viewBox="0 0 24 23" fill="none" xmlns="http://www.w3.org/2000/svg">
<path fill-rule="evenodd" clip-rule="evenodd" d="M16.6667 2.3C14.0893 2.3 12 4.10205 12 6.325C12 8.54795 14.0893 10.35 16.6667 10.35C19.244 10.35 21.3333 8.54795 21.3333 6.325C21.3333 4.10205 19.244 2.3 16.6667 2.3ZM9.33333 6.325C9.33333 2.8318 12.6165 0 16.6667 0C20.7168 0 24 2.8318 24 6.325C24 9.8182 20.7168 12.65 16.6667 12.65C15.1254 12.65 13.6951 12.2399 12.5146 11.5393L7.22085 16.1016L8.94281 17.5868C9.46351 18.0359 9.46351 18.7641 8.94281 19.2132C8.42211 19.6623 7.57789 19.6623 7.05719 19.2132L5.33451 17.7274L3.21931 19.5503L4.94281 21.0368C5.46351 21.4859 5.46351 22.2141 4.94281 22.6632C4.42211 23.1123 3.57789 23.1123 3.05719 22.6632L0.390524 20.3632C0.140413 20.1475 -6.80438e-05 19.8549 2.47248e-08 19.5498C6.80932e-05 19.2447 0.140679 18.9522 0.390887 18.7365L4.33809 15.3347C4.35494 15.3184 4.37241 15.3024 4.39052 15.2868C4.40888 15.271 4.42764 15.2557 4.44678 15.241L10.6276 9.91417C9.81134 8.89445 9.33333 7.65787 9.33333 6.325Z" fill="#7C52C7"/>
</svg>
