<svg width="40" height="40" viewBox="0 0 40 40" fill="none" xmlns="http://www.w3.org/2000/svg">
<path d="M26.8968 11.5613C30.5124 11.5613 33.7876 12.9663 36.1583 15.2392C38.5314 17.5145 40 20.6527 40 24.1192C40 27.7242 38.3977 31.0569 35.7255 33.3954L35.6598 39.1979C35.6525 39.8737 34.8186 40.2748 34.2423 39.7789L30.0116 36.3197C25.5231 37.3675 20.8571 36.0912 17.6354 33.0016C15.486 30.9426 14.0806 28.1739 13.8326 25.0988C12.5391 25.1669 11.2455 25.0526 9.98845 24.7585L5.7577 28.2176C5.18145 28.7135 4.34502 28.3124 4.34016 27.6367L4.27208 21.8366C1.60233 19.4956 0 16.1629 0 12.5604C0 9.09393 1.4686 5.95324 3.84171 3.67794C8.94535 -1.21298 17.2026 -1.22757 22.3281 3.64391C24.4946 5.70286 25.9121 8.48378 26.1625 11.5807C26.4057 11.5661 26.6488 11.5613 26.8968 11.5613ZM12.133 16.1969C12.133 15.7302 12.5099 15.3534 12.9767 15.3534C13.4436 15.3534 13.8204 15.7302 13.8204 16.1969V16.581C13.8204 17.0478 13.4436 17.427 12.9767 17.427C12.5099 17.427 12.133 17.0478 12.133 16.581V16.1969ZM11.3914 9.03559C11.1969 9.45856 10.696 9.64331 10.2729 9.44884C9.84986 9.25437 9.66507 8.75361 9.85958 8.33064C10.73 6.45157 12.1962 5.74661 13.587 5.78065C15.5978 5.83413 17.4822 7.51143 17.1053 9.56552C16.8938 10.7226 15.9382 11.9429 13.8204 12.891V14.2206C13.8204 14.6874 13.4436 15.0642 12.9767 15.0642C12.5099 15.0642 12.133 14.6874 12.133 14.2206V12.3294C12.133 11.994 12.3372 11.6755 12.6704 11.5443C14.528 10.8199 15.3182 9.99092 15.4495 9.26166C15.5298 8.8241 15.345 8.40356 15.0191 8.08025C14.6471 7.71562 14.1098 7.4774 13.5481 7.46281C12.7676 7.44337 11.9263 7.87849 11.3914 9.03559ZM21.5379 25.038C21.234 24.688 21.2704 24.1532 21.6206 23.8493C21.9731 23.5431 22.5056 23.5795 22.812 23.9296L25.1948 26.6667L30.8796 20.5482C31.1957 20.2079 31.7282 20.1884 32.0686 20.5045C32.4114 20.8229 32.4284 21.3553 32.1123 21.6956L25.827 28.4632C25.7978 28.4996 25.7638 28.5336 25.7273 28.5652C25.3772 28.8715 24.8447 28.8326 24.5383 28.4826L21.5379 25.038ZM13.8107 23.4799C14.1219 17.5437 18.7004 12.8034 24.4897 11.7728C24.2879 9.05017 23.0454 6.59985 21.1416 4.78885C16.6798 0.549401 9.47055 0.566417 5.02827 4.82531C2.96395 6.80161 1.68744 9.53635 1.68744 12.5604C1.68744 15.8202 3.17792 18.8126 5.65801 20.8545C5.86226 21.0222 5.96195 21.2629 5.95222 21.5011L6.00085 25.901L9.19336 23.2902C9.42435 23.0909 9.71126 23.0131 10.0055 23.0933C11.2334 23.4239 12.5293 23.5528 13.8107 23.4799ZM15.4836 24.1921C15.4836 24.2067 15.4836 24.2213 15.4836 24.2334C15.5152 27.2113 16.7844 29.9022 18.822 31.8542C20.8863 33.8354 23.7408 35.0581 26.8968 35.0581C27.9667 35.0581 28.9757 34.9268 29.9921 34.6522V34.6546C30.2887 34.5744 30.5756 34.6522 30.8042 34.8515L33.9967 37.4623L34.0478 33.0624C34.0381 32.8241 34.1377 32.5811 34.342 32.4133C36.8221 30.3714 38.3101 27.3814 38.3101 24.1192C38.3101 21.0976 37.0336 18.3629 34.9717 16.3841C30.5149 12.1131 23.2788 12.1131 18.822 16.3841C16.7382 18.3823 15.4641 21.1414 15.4836 24.1921Z" fill="white"/>
</svg>
