<svg width="32" height="33" viewBox="0 0 32 33" fill="none" xmlns="http://www.w3.org/2000/svg">
<path d="M22.8131 9.66749C22.8193 9.66749 22.8276 9.66749 22.8358 9.66749C23.0514 9.66749 23.2514 9.73655 23.4154 9.85555L23.4123 9.85343C23.5319 9.96074 23.6124 10.1116 23.6319 10.2816V10.2848C23.6526 10.4144 23.6639 10.5632 23.6639 10.7151C23.6639 10.7842 23.6619 10.8522 23.6567 10.9202V10.9106C23.4247 13.4277 22.4182 19.5317 21.9067 22.3495C21.6901 23.5427 21.2642 23.9422 20.8517 23.9804C19.9555 24.0665 19.2749 23.3705 18.4066 22.784C17.0474 21.865 16.2791 21.2934 14.9602 20.3977C13.4349 19.3639 14.4239 18.7933 15.2922 17.8647C15.5201 17.6203 19.4709 13.9175 19.5482 13.5817C19.5523 13.5615 19.5544 13.5392 19.5544 13.5159C19.5544 13.433 19.5245 13.3575 19.476 13.3002C19.4224 13.264 19.3554 13.2439 19.2852 13.2439C19.2388 13.2439 19.1945 13.2534 19.1532 13.2694L19.1553 13.2683C19.0192 13.3002 16.848 14.7785 12.6419 17.7032C12.183 18.0761 11.6034 18.312 10.9723 18.3396H10.9661C10.072 18.228 9.26045 18.023 8.49011 17.7308L8.56642 17.7563C7.59911 17.4312 6.83082 17.2601 6.89682 16.7097C6.93189 16.4236 7.31482 16.1307 8.04564 15.831C12.5474 13.8102 15.5494 12.4782 17.0515 11.835C18.7088 10.9287 20.63 10.1828 22.6502 9.69936L22.8121 9.66642L22.8131 9.66749ZM16.4276 0.0890503C7.8662 0.1103 0.933105 7.26624 0.933105 16.0903C0.933105 24.9271 7.88579 32.0915 16.4637 32.0915C25.0417 32.0915 31.9944 24.9282 31.9944 16.0903C31.9944 7.26624 25.0613 0.1103 16.5019 0.0890503H16.4998C16.4758 0.0890503 16.4517 0.0890503 16.4276 0.0890503Z" fill="white"/>
</svg>
