<svg width="37" height="30" viewBox="0 0 37 30" fill="none" xmlns="http://www.w3.org/2000/svg">
<path d="M35.3311 0H1.2718C0.57386 0 0 0.579346 0 1.28396V23.6592C0 24.3638 0.57386 24.9432 1.2718 24.9432H9.18175L8.49933 22.3753H2.54359V2.56791H34.0749V22.3753H28.4138C29.9027 23.0016 31.2986 23.8628 32.5704 24.9432H35.3622C36.0601 24.9432 36.634 24.3638 36.634 23.6592V1.28396C36.6029 0.579346 36.0291 0 35.3311 0Z" fill="black"/>
<path d="M26.9562 24.5517C26.8167 24.5047 26.6771 24.4421 26.553 24.4108C26.4599 24.3795 26.3669 24.3481 26.2738 24.3168C26.0412 24.2385 25.793 24.1603 25.5449 24.1133C25.4828 24.082 25.4208 24.0663 25.3587 24.0663H25.1571C25.0951 24.0663 25.033 24.082 24.971 24.1133C24.2886 24.4891 23.3425 24.6926 22.3809 24.6926C21.4193 24.6926 20.4887 24.4734 19.7908 24.1133C19.7287 24.082 19.6667 24.0663 19.6046 24.0663H19.4495C19.4185 24.0663 19.3875 24.0663 19.3565 24.082C19.0928 24.1446 18.8292 24.2229 18.5655 24.3012C18.4569 24.3325 18.3328 24.3795 18.2243 24.4108C18.1002 24.4578 17.9916 24.4891 17.8676 24.536C17.5418 24.6613 17.2161 24.8022 16.8904 24.9432C16.4872 25.131 16.0839 25.3346 15.6962 25.5538L15.3084 24.9432L14.9052 24.3012L11.8808 19.4315C11.6792 19.1184 11.2759 18.9931 10.9347 19.134C10.5935 19.2906 10.4074 19.6664 10.5004 20.0422L11.1208 22.3752L11.8033 24.9432L12.8579 28.9046C12.8734 28.9829 12.9044 29.0455 12.951 29.1082V29.2961C12.951 29.5153 13.1371 29.7032 13.3542 29.7032H31.392C31.6092 29.7032 31.7953 29.5153 31.7953 29.2961V27.8712C31.7953 27.7616 31.7488 27.6676 31.6712 27.5894C30.2908 26.2428 28.6778 25.2093 26.9562 24.5517Z" fill="black"/>
<path d="M16.4248 17.1925C16.4248 20.4963 19.077 23.1895 22.365 23.1895C25.6376 23.1895 28.3052 20.512 28.3052 17.1925C28.3052 13.8887 25.6531 11.1955 22.365 11.1955C19.0925 11.1955 16.4248 13.873 16.4248 17.1925Z" fill="black"/>
</svg>
