<svg width="17" height="17" viewBox="0 0 17 17" fill="none" xmlns="http://www.w3.org/2000/svg">
<path d="M0 8.5C0 7.35533 0.226667 6.256 0.68 5.202C1.13333 4.148 1.734 3.24133 2.482 2.482C3.23 1.72267 4.13667 1.122 5.202 0.68C6.26733 0.238 7.36667 0.0113333 8.5 0C9.656 0 10.761 0.226667 11.815 0.68C12.869 1.13333 13.77 1.734 14.518 2.482C15.266 3.23 15.8667 4.13667 16.32 5.202C16.7733 6.26733 17 7.36667 17 8.5C17 9.656 16.7733 10.7553 16.32 11.798C15.8667 12.8407 15.266 13.7473 14.518 14.518C13.77 15.2887 12.8633 15.895 11.798 16.337C10.7327 16.779 9.63333 17 8.5 17C7.36667 17 6.26733 16.779 5.202 16.337C4.13667 15.895 3.23 15.2887 2.482 14.518C1.734 13.7473 1.13333 12.8407 0.68 11.798C0.226667 10.7553 0 9.656 0 8.5ZM2.125 8.5C2.125 9.656 2.40833 10.727 2.975 11.713C3.54167 12.699 4.318 13.4697 5.304 14.025C6.29 14.5803 7.35533 14.8637 8.5 14.875C9.64467 14.8863 10.71 14.603 11.696 14.025C12.682 13.447 13.4583 12.6763 14.025 11.713C14.5917 10.7497 14.875 9.67867 14.875 8.5C14.875 7.32133 14.5917 6.256 14.025 5.304C13.4583 4.352 12.682 3.58133 11.696 2.992C10.71 2.40267 9.64467 2.11367 8.5 2.125C7.35533 2.13633 6.29 2.42533 5.304 2.992C4.318 3.55867 3.54167 4.32933 2.975 5.304C2.40833 6.27867 2.125 7.344 2.125 8.5ZM7.446 8.5V5.321C7.446 5.02633 7.548 4.777 7.752 4.573C7.956 4.369 8.20533 4.26133 8.5 4.25C8.79467 4.23867 9.044 4.34633 9.248 4.573C9.452 4.79967 9.55967 5.049 9.571 5.321V7.446H11.696C11.9793 7.446 12.2287 7.548 12.444 7.752C12.6593 7.956 12.7613 8.20533 12.75 8.5C12.7387 8.79467 12.6367 9.04967 12.444 9.265C12.2513 9.48033 12.002 9.58233 11.696 9.571H8.5C8.20533 9.571 7.956 9.469 7.752 9.265C7.548 9.061 7.446 8.806 7.446 8.5Z" fill="#4F0E77"/>
</svg>
