<svg width="40" height="32" viewBox="0 0 40 32" fill="none" xmlns="http://www.w3.org/2000/svg">
<path fill-rule="evenodd" clip-rule="evenodd" d="M21.4208 2.92154C17.2306 2.92154 13.5986 5.61302 12.061 9.29673C11.8673 9.76091 11.4499 10.0918 10.9567 10.1723C6.09497 10.9662 2.89921 15.0536 2.89921 19.4256C2.89921 24.7441 7.22081 29.0785 12.5798 29.0785H29.2752C33.5963 29.0785 37.1008 25.5459 37.1008 21.1861C37.1008 17.9081 35.1319 14.9053 32.4045 13.7036C31.9043 13.4832 31.5694 12.9983 31.5381 12.449C31.2356 7.14777 26.8313 2.92154 21.4208 2.92154ZM9.71714 7.43911C11.8295 3.1279 16.2585 0 21.4208 0C28.0614 0 33.5569 4.9718 34.3545 11.4172C37.7445 13.2875 40 17.1023 40 21.1861C40 27.1575 35.1993 32 29.2752 32H12.5798C5.64474 32 0 26.3829 0 19.4256C0 13.8662 3.87835 8.75723 9.71714 7.43911ZM20 9.34665C20.8006 9.34665 21.4496 10.0007 21.4496 10.8074V19.743L23.0973 18.0826C23.6634 17.5122 24.5812 17.5122 25.1473 18.0826C25.7134 18.6531 25.7134 19.578 25.1473 20.1485L21.025 24.3025C20.4589 24.873 19.5411 24.873 18.975 24.3025L14.8527 20.1485C14.2866 19.578 14.2866 18.6531 14.8527 18.0826C15.4188 17.5122 16.3366 17.5122 16.9027 18.0826L18.5504 19.743V10.8074C18.5504 10.0007 19.1994 9.34665 20 9.34665Z" fill="#9D80D7"/>
</svg>
