<svg width="44" height="28" viewBox="0 0 44 28" fill="none" xmlns="http://www.w3.org/2000/svg">
<path d="M30.9894 9.83333L36.7855 6.61233C38.5694 5.6209 39.4615 5.12519 40.1955 5.18856C40.8354 5.24381 41.4194 5.55 41.7997 6.02985C42.2361 6.58017 42.2361 7.54365 42.2361 9.47062V18.5294C42.2361 20.4562 42.2361 21.4198 41.7997 21.9702C41.4194 22.45 40.8354 22.7562 40.1955 22.8115C39.4615 22.8748 38.5694 22.3792 36.7855 21.3877L30.9894 18.1667M8.94592 26.5H23.7915C26.311 26.5 27.5709 26.5 28.5331 26.0458C29.3796 25.6465 30.0679 25.009 30.4991 24.225C30.9894 23.3338 30.9894 22.1669 30.9894 19.8333V8.16667C30.9894 5.83312 30.9894 4.66633 30.4991 3.77504C30.0679 2.99102 29.3796 2.3536 28.5331 1.95415C27.5709 1.5 26.311 1.5 23.7915 1.5H8.94592C6.42644 1.5 5.16668 1.5 4.20437 1.95415C3.35787 2.3536 2.66967 2.99102 2.23838 3.77504C1.74805 4.66633 1.74805 5.8331 1.74805 8.16667V19.8333C1.74805 22.1669 1.74805 23.3338 2.23838 24.225C2.66967 25.009 3.35787 25.6465 4.20437 26.0458C5.16668 26.5 6.42642 26.5 8.94592 26.5Z" stroke="#9D80D7" stroke-width="2" stroke-linecap="round" stroke-linejoin="round"/>
</svg>
