<svg width="37" height="23" viewBox="0 0 37 23" fill="none" xmlns="http://www.w3.org/2000/svg">
<path fill-rule="evenodd" clip-rule="evenodd" d="M36.8096 21.4209C36.3823 21.9015 35.244 22.008 35.244 22.008H29.1772C29.1772 22.008 28.329 22.206 26.8287 20.6381C25.798 19.5608 24.7386 17.9717 23.8932 17.3111C23.389 16.9172 22.9146 17.1154 22.9146 17.1154C22.9146 17.1154 22.0294 17.1578 21.9361 18.0939C21.7721 19.7381 21.5447 20.6381 21.5447 20.6381C21.5447 20.6381 21.4367 21.3332 21.1533 21.6166C20.8504 21.9195 20.3705 22.008 20.3705 22.008C20.3705 22.008 11.9975 23.8954 5.49697 13.397C0.805842 5.82042 0.212975 3.61191 0.212975 3.61191C0.212975 3.61191 -0.18492 3.07664 0.212975 2.43766C0.633055 1.76314 1.19152 1.85058 1.19152 1.85058H6.67121C6.67121 1.85058 7.27708 1.91583 7.64976 2.24197C8.0582 2.59932 8.23692 3.22052 8.23692 3.22052C8.23692 3.22052 9.43812 6.12509 10.7811 8.30881C12.6369 11.3262 13.521 11.0487 13.521 11.0487C13.521 11.0487 15.1235 10.6028 14.1081 3.8076C13.9676 2.86757 12.151 2.63336 12.151 2.63336C12.151 2.63336 12.1342 1.82196 12.5424 1.45912C13.0106 1.04279 13.521 1.06772 13.521 1.06772C13.521 1.06772 14.3336 0.925795 17.2393 0.87203C18.7082 0.84493 19.7834 0.87203 19.7834 0.87203C19.7834 0.87203 20.4984 0.848254 21.3491 1.45919C21.7607 1.75475 21.7405 2.43774 21.7405 2.43774C21.7405 2.43774 21.5679 7.34183 21.7405 9.87452C21.8148 10.9639 22.3276 11.0488 22.3276 11.0488C22.3276 11.0488 22.8784 11.4753 25.0674 8.30888C26.4527 6.30518 27.6116 3.41629 27.6116 3.41629C27.6116 3.41629 27.8985 2.59239 28.1987 2.24204C28.4852 1.90781 28.9816 1.85065 28.9816 1.85065H36.0269C36.0269 1.85065 36.4613 1.83468 36.614 2.24204C36.7542 2.61609 36.614 3.41629 36.614 3.41629C36.614 3.41629 36.537 4.30255 35.8312 5.37338C34.1646 7.90188 30.9386 12.0272 30.9386 12.0272C30.9386 12.0272 30.6964 12.5874 30.7429 13.0058C30.7941 13.4662 31.1343 13.7886 31.1343 13.7886C31.1343 13.7886 33.5658 15.9887 35.244 17.8984C36.1507 18.9302 36.8097 20.2468 36.8097 20.2468C36.8097 20.2468 37.1567 21.0305 36.8096 21.4209Z" fill="white"/>
</svg>
