<svg width="19" height="23" viewBox="0 0 19 23" fill="none" xmlns="http://www.w3.org/2000/svg">
<path fill-rule="evenodd" clip-rule="evenodd" d="M3.82119 3.77669C3.56788 3.94799 3.35296 4.28359 3.35296 4.76338V18.2365C3.35296 18.7164 3.5679 19.052 3.82122 19.2233C4.06636 19.3891 4.34065 19.407 4.60961 19.2353L15.1606 12.4988C15.1606 12.4988 15.1607 12.4988 15.1606 12.4988C15.4571 12.3094 15.6471 11.9477 15.6471 11.5C15.6471 11.0523 15.4572 10.6906 15.1607 10.5013C15.1607 10.5012 15.1608 10.5013 15.1607 10.5013L4.60964 3.76472C4.34066 3.59298 4.06633 3.61093 3.82119 3.77669ZM6.3143 0.642346L16.8654 7.3789C19.7115 9.19635 19.7116 13.8036 16.8655 15.621L6.31433 22.3576C6.31432 22.3576 6.31434 22.3576 6.31433 22.3576C3.34446 24.2539 0 21.6751 0 18.2365V4.76338C0 1.32472 3.34453 -1.25376 6.3143 0.642346Z" fill="white"/>
</svg>
